<?xml version="1.0" encoding="iso-8859-1"?>
<!-- Uploaded to: SVG Repo, www.svgrepo.com, Generator: SVG Repo Mixer Tools -->
<!DOCTYPE svg PUBLIC "-//W3C//DTD SVG 1.1//EN" "http://www.w3.org/Graphics/SVG/1.1/DTD/svg11.dtd">
<svg fill="#000000" version="1.1" id="Capa_1" xmlns="http://www.w3.org/2000/svg" xmlns:xlink="http://www.w3.org/1999/xlink" 
	 width="800px" height="800px" viewBox="0 0 417.075 417.075"
	 xml:space="preserve">
<g>
	<g>
		<path d="M346.717,131.279C346.717,58.89,284.731,0,208.538,0S70.358,58.891,70.358,131.279c0,50.467,19.548,79.123,38.464,106.849
			c15.547,22.779,31.605,46.33,33,77.959H275.34c1.402-31.604,17.43-55.146,32.961-77.938
			C327.188,210.436,346.717,181.779,346.717,131.279z"/>
		<path d="M143.258,368.438c0,9.425,7.641,17.064,17.066,17.064h10.431c3.223,17.95,18.906,31.573,37.783,31.573
			c18.876,0,34.56-13.623,37.783-31.573h10.432c9.424,0,17.066-7.641,17.066-17.064v-28.795H143.258V368.438z"/>
	</g>
</g>
</svg>